# xmcd
#
# Track frame offsets:
# 150
# 22542
# 35968
# 53931
# 71838
# 85729
# 104633
# 125429
# 152347
# 170949
# 202214
# 223087
# 233071
#
# Disc length: 3286 seconds
#
#
# Revision: 0
# Processed by: cddbd v1.5.1PL2 Copyright (c) Steve Scherf et al.
# Submitted via: FreeRIP 2.945 
#
DISCID=bc0cd40d
DTITLE=Comunidade Evangelica de Salvador - Ao Senhor Pertence A Cidade
DYEAR=1900
DGENRE=Gospel
TTITLE0=Nova Visão
TTITLE1=Adorai
TTITLE2=Salmo 148 Louvai Ao Senhor
TTITLE3=Prropósito Eterno
TTITLE4=Torre Forte
TTITLE5=Muro de Fogo
TTITLE6=Armadura de Deus
TTITLE7=Ministra
TTITLE8=Digno de Louvor
TTITLE9=Nome Soberano
TTITLE10=Toda Terra
TTITLE11=Teu É O Poder
TTITLE12=Adorai PB
EXTD=Este Album Pertence ao início da década de 90
EXTT0=
EXTT1=
EXTT2=
EXTT3=
EXTT4=
EXTT5=
EXTT6=
EXTT7=
EXTT8=
EXTT9=
EXTT10=
EXTT11=
EXTT12=
PLAYORDER=
